Patient4_TMGait_0pt5_02_right_06_EMG.mot
version=1
nRows=30
nColumns=33
inDegrees=no
endheader
time	1LAddLong	2LGlutMax	3LGlutMed	4LIliopsoas	5LSemiMemb	6LBicFemLong	7LRecFem	8LVastMed	9LVastLat	10LGasMed	11LTibAnt	12lTibPost	13LPeroneusLong	14LSol	15LExtDigLong	16LFlexDigLong	17RAddLong	18RGlutMax	19RGlutMed	20RIliopsoas	21RSemiMemb	22RBicFemLong	23RRecFem	24RVastMed	25RVastLat	26RGasMed	27RTibAnt	28RTibPost	29RPeroneusLong	30RSol	31RExtDigLong	32RFlexDigLong
7.8	0.024261	-0.036774	-0.030365	0.010529	0.11749	0.022125	-0.063934	-0.002899	-0.013275	-0.15167	0.1059	0.19775	-0.039215	0.21103	0.027313	0.054474	-0.10101	-0.044098	-0.09552	0.077209	0.14771	-0.024414	0.09613	0.051727	-0.032806	-0.005188	0.061798	-0.013733	-0.026245	-0.034027	0.000305	-0.010681
7.801	0.000305	-0.023956	0.012665	-0.002441	0.1268	0.079498	0.027771	0.001526	0.031891	-0.063171	0.028992	0.18402	0.040894	0.44311	0.010681	-0.44311	-0.094604	-0.080414	-0.053253	0.071106	0.16892	0.002136	0.10651	-0.027924	-0.0354	-0.006409	0.1944	-0.015259	-0.081024	-0.031281	-0.001831	-0.006409
7.802	0.012207	-0.034637	0.14984	0.018463	0.092926	0.08667	0.032806	0.002441	0.031128	0.3035	0.051422	-0.29709	0.0383	0.19562	0.036316	0.27908	-0.10422	-0.070953	0.035095	0.050812	0.15121	-0.005646	0.062866	-0.022583	-0.030365	-0.003052	0.22537	-0.015106	-0.12009	-0.066986	-0.000763	-0.003815
7.803	0.00885	-0.048523	0.15305	0.00351	0.066376	0.075836	-0.00824	0.002899	0.02243	0.50323	0.047455	0.024261	-0.028534	0.10773	0.087433	0.002747	-0.12543	-0.043945	0.061493	0.023041	0.1474	0.012665	0.10544	0.013428	-0.028381	-0.00824	0.24704	-0.024872	-0.17548	-0.084686	-0.000763	-0.007477
7.804	0.001068	-0.04837	0.049591	0.005798	0.050049	0.048523	-0.023346	0.004272	0.028992	-0.10727	0.048828	-0.059357	0.003662	0.054321	0.078125	0.31357	-0.10941	-0.077362	0.054932	0.075378	0.14221	0.028381	0.045013	0.02655	-0.019684	-0.00351	0.30197	-0.019073	-0.15045	-0.071411	-0.002441	-0.005798
7.805	0.001831	-0.032959	0.071259	-0.001373	0.047913	0.072174	-0.009308	-0.001221	0.03418	-0.63492	0.026703	0.13931	0.031128	-0.072632	0.048828	0.21423	-0.079956	-0.10742	0.17746	0.075684	0.15137	0.020294	0.12054	0.010071	-0.041351	-0.010223	0.13855	-0.014343	0.023651	-0.057526	-0.001678	-0.001526
7.806	0.003204	-0.036316	0.09079	0.006256	0.038147	0.066681	-0.010529	0.005646	0.025482	-0.29739	0.032654	0.50705	0.024567	-0.26398	0.02182	-0.12238	-0.060883	-0.15198	0.071411	0.067902	0.14023	0.010376	0.20523	-0.034332	-0.059662	-0.011444	0.12116	-0.017548	0.38422	-0.050964	-0.000458	-0.002136
7.807	-0.004272	-0.046387	0.10147	0.00885	0.032043	0.098877	0.002441	0.001373	0.014343	0.12543	0.047455	0.35996	-0.006561	-0.13794	-0.007935	-0.12466	-0.021057	-0.13458	-0.011444	0.06958	0.13092	0.003815	0.17944	-0.029449	-0.059662	-0.011139	-0.02655	-0.015411	-0.01236	-0.021362	0.000153	0.00412
7.808	-0.009918	-0.04837	0.1889	-0.002899	0.000305	0.12985	0	0.007629	-0.009155	-0.10681	0.022125	-0.55069	0.003967	0.14297	-0.024261	-0.025024	0.057983	-0.14694	-0.014801	0.057831	0.12283	-0.001831	0.16342	-0.063782	-0.046844	-0.003357	-0.23086	-0.013275	0.32349	-0.019531	-0.002747	-0.002136
7.809	-0.018005	-0.021057	0.17487	0.005035	-0.052948	0.12772	0.027161	0.010223	-0.086212	-0.015564	0.025177	-0.010376	-0.02655	0.093536	-0.033112	-0.093536	0.08728	-0.16556	-0.054932	0.11154	0.11673	-0.001984	0.15152	-0.10712	-0.058441	-0.000916	-0.40832	-0.011749	0.13458	-0.036621	-0.000458	-0.000458
7.81	-0.015106	-0.016479	0.10941	0.002289	-0.12497	0.10101	0.00473	0.010529	-0.09552	0.15289	0.034943	0.29511	-0.059662	-0.16953	-0.029907	-0.090485	0.067749	-0.20096	0.02594	0.090485	0.11505	-0.001984	0.098724	-0.12634	-0.063324	0	-0.29037	-0.015106	-0.23392	-0.04715	0.002594	-0.000305
7.811	-0.013885	-0.024567	0.027771	0.007172	-0.16159	0.034485	-0.02655	0.005035	-0.080261	0.14557	0.025177	0.13382	-0.1062	-0.078888	-0.015259	0.033417	0.034332	-0.21637	0.080566	0.079803	0.10971	0.004425	0.079193	-0.1059	-0.058289	-0.002441	-0.16785	-0.000916	-0.32867	-0.014191	-0.003052	-0.010834
7.812	0.003357	-0.036774	-0.046997	-0.005493	-0.039063	-0.083923	-0.021057	0.004425	0.082092	-0.016479	0.028381	-0.29663	-0.10422	0.05722	0.00473	0.000153	0.027161	-0.22751	0.12573	0.17029	0.10849	-0.001068	0.017853	-0.13306	-0.050964	-0.00946	0.023956	-0.009155	-0.19745	0.028839	-0.002594	-0.007477
7.813	0.014038	-0.027466	0.00473	0.009918	0.041809	-0.065918	-0.024567	0.002441	0.14145	-0.11765	0.016632	-0.13321	-0.067291	0.12863	0.00351	-0.066986	0.019073	-0.25452	0.039368	0.26504	0.096741	0.000305	0.0383	-0.1799	-0.051422	-0.009918	0.20081	-0.010223	-0.11322	0.016632	-0.000458	-0.003357
7.814	0.027771	-0.033722	0.054016	0.005035	0.10681	0.049438	-0.027924	-0.005646	0.12283	-0.055084	0.014038	-0.084534	-0.087738	0.30304	-0.001526	-0.022125	0.012665	-0.25543	-0.17899	0.21042	0.092621	-0.000153	0.029907	-0.16739	-0.053558	-0.007629	0.31082	-0.010071	-0.11337	-0.050049	-0.00061	-0.001831
7.815	0.018768	0.001831	0.10803	-0.001526	0.14374	0.023041	-0.022888	-0.003967	0.007782	-0.078888	0.009918	-0.085297	-0.11566	0.27878	0	0.009155	0.002899	-0.20844	-0.22476	0.050201	0.088196	0.000763	0.054321	-0.15518	-0.07019	-0.002899	0.20126	0.000153	0.070953	-0.031738	-0.00473	-0.002136
7.816	0.014496	-0.038757	0.057678	-0.004425	0.087738	-0.053406	-0.008087	-0.01236	-0.090485	-0.092163	0.018921	-0.052032	-0.14282	-0.15259	0.01358	-0.023041	-0.019684	-0.19012	-0.052948	-0.14526	0.13519	0.002136	0.082397	-0.0383	-0.040436	-0.012665	0.085907	-0.010223	0.27527	-0.004578	-0.004425	-0.012665
7.817	0.002441	-0.015869	0.053864	-0.005798	0.049286	-0.01358	-0.031281	0.002899	-0.091095	-0.060425	0.012817	-0.045471	-0.12299	-0.10101	0.027008	-0.015106	-0.006409	-0.18158	0.11337	-0.16892	0.13168	0.013733	0.10742	-0.041351	-0.037384	-0.015869	0.079956	-0.01297	0.14511	-0.002136	-0.003052	-0.006104
7.818	0.000763	-0.049133	0.05722	0.003967	0.042114	0.051575	-0.041504	0.00946	-0.051117	0.023956	0.007629	-0.083923	-0.033264	0.031738	0.033875	-0.012817	-0.011139	-0.19348	0.10437	-0.043945	0.12131	0.010223	0.00824	-0.04837	-0.052643	-0.011292	0.054779	-0.013885	-0.37491	-0.009155	-0.001068	-0.007324
7.819	-0.000305	-0.001831	0.028534	0.005951	0.014801	0.009155	0.00473	0.010223	-0.00885	0.32105	0.01236	-0.099945	-0.062561	0.001373	0.030365	-0.023041	-0.029144	-0.1976	0.015869	0.00061	0.10223	0.001526	0.002136	-0.054169	-0.036926	-0.009003	-0.13825	-0.010834	-0.11307	-0.009613	-0.001831	-0.011902
7.82	0.008392	-0.012817	0.002899	0.008087	-0.020142	-0.07843	0.011749	0.002441	-0.079956	0.70923	0.014954	-0.097961	-0.11612	-0.037537	0.019836	-0.020905	-0.023499	-0.18677	-0.021667	-0.045624	0.098724	0.000458	-0.002899	-0.028992	-0.045013	-0.010223	-0.10132	-0.00946	0.20508	-0.007324	-0.000458	-0.002136
7.821	0.006561	0.019379	0.006409	0.007935	-0.037689	-0.08667	-0.028534	0.009155	-0.017548	0.6218	0.016327	0.001526	-0.065613	-0.1059	0.015717	-0.013275	-0.025177	-0.23346	0.00473	-0.080566	0.090637	-0.001221	0.017242	-0.049591	-0.041504	-0.009308	-0.054016	-0.01297	0.17212	-0.006866	-0.001068	-0.004578
7.822	0.006256	0.050659	0.020905	0.012817	-0.048676	-0.052795	-0.030823	0.005493	0.028687	0.36255	0.006714	0.079498	0.055695	-0.095367	-0.000916	-0.002594	-0.025024	-0.2063	0.17258	-0.17761	0.081482	0.009918	0.084076	-0.02655	-0.041809	-0.009613	-0.033417	-0.013428	-0.027618	-0.037537	-0.003204	-0.001221
7.823	0.013428	0.054474	0.041809	0.011597	-0.054321	0.005493	0.005188	-0.005035	-0.033875	0.27954	0.00824	-0.10422	0.10941	-0.061951	-0.004578	-0.004883	-0.028992	-0.2446	0.19272	-0.23392	0.070496	0.005951	0.09903	-0.021515	-0.035706	-0.00824	-0.002441	-0.011902	-0.1413	-0.057831	-0.002136	-0.000305
7.824	0.012512	0.049438	0.029449	0.006866	0.026703	-0.029144	0.021515	0	-0.066071	-0.12665	0.023346	-0.036011	0.075226	-0.12085	-0.005951	-0.005341	-0.032501	-0.18601	0.18127	-0.26977	0.069275	0.003967	0.10162	-0.04837	-0.02243	-0.000305	-0.062714	-0.007324	-0.26398	-0.028076	-0.002441	0.00351
7.825	0.016174	0.035858	0.068207	-0.002136	0.12238	-0.057983	0.00412	0.005493	0.00885	-0.10468	0.018768	-0.015717	-0.007324	-0.061035	-0.007935	-0.017242	-0.015564	-0.1976	0.02594	-0.23804	0.06958	0.014801	0.12161	-0.017853	-0.023499	0.002594	-0.045776	-0.013733	-0.24735	-0.006714	-0.001373	0.002899
7.826	0.009766	0.089874	0.097656	-0.003815	0.097809	-0.025024	0.024567	0.001526	0.059357	0.27741	0.013733	-0.008087	-0.052795	0.004578	-0.030365	-0.007324	0.002594	-0.14969	0.014801	-0.13412	0.068817	0.034943	0.16846	-0.000153	-0.018311	-0.000305	0.040741	-0.009766	-0.26398	-0.016327	-0.000763	-0.001526
7.827	0.010681	0.042114	0.082092	-0.003815	0.059357	0.019379	-0.015869	-0.010376	0.053101	0.24612	0.016022	0.021057	-0.069885	-0.10956	-0.046234	0.021515	0.01236	-0.16983	-0.017548	0.054474	0.058441	0.012665	0.10391	-0.016632	-0.033264	-0.003357	0.034485	-0.006561	-0.32318	-0.016937	-0.001984	-0.011902
7.828	0.002899	0.012207	0.017853	0.008087	0.034943	-0.016327	-0.005493	0.005493	-0.022888	-0.15076	0.004425	0.035553	0.002747	-0.050507	-0.014954	0.013123	0.023499	-0.17624	0.20828	0.088348	0.062408	0.025787	0.10941	-0.043335	-0.025787	0.002441	0.032959	-0.011749	-0.2417	0.00412	-0.003662	-0.017242
7.829	0.006561	0.000153	-0.011444	-0.00061	0.042877	0.018616	0.019989	0.002289	-0.10895	-0.12207	0.011749	0.17685	0.027313	0.031281	-0.006409	-0.003204	0.025787	-0.13016	0.39307	0.048065	0.058899	0.009918	0.12787	-0.055695	-0.029297	0.003204	0.03891	-0.006866	-0.089569	0.018311	-0.006256	-0.022888
